<?xml version="1.0" encoding="utf-8"?>
<!-- Svg Vector Icons : http://www.onlinewebfonts.com/icon -->
<!DOCTYPE svg PUBLIC "-//W3C//DTD SVG 1.1//EN" "http://www.w3.org/Graphics/SVG/1.1/DTD/svg11.dtd">
<svg version="1.1" xmlns="http://www.w3.org/2000/svg" xmlns:xlink="http://www.w3.org/1999/xlink" x="0px" y="0px" viewBox="0 0 1000 1000" enable-background="new 0 0 1000 1000" xml:space="preserve">
<metadata> Svg Vector Icons : http://www.onlinewebfonts.com/icon </metadata>
<g><g transform="translate(0.000000,512.000000) scale(0.100000,-0.100000)"><path d="M4781.3,4996.8c-143.7-38.3-199.2-63.2-304.6-139.8C4287.1,4721,737.8,1911.1,684.2,1853.6c-91.9-95.8-145.6-231.8-145.6-373.5c0-143.7,38.3-241.3,136-348.6c36.4-40.2,448.2-373.5,917.5-743.2L2444.5-284l9.6,1365.7l9.6,1365.7l53.6,91.9c63.2,107.3,170.5,189.6,285.4,222.2c61.3,17.2,630.2,21.1,2246.8,17.2c2097.4-5.7,2166.3-7.7,2239.1-42.1c42.1-21.1,105.3-67,141.7-103.4c134.1-136,126.4-59.4,137.9-1557.2l9.6-1352.3l833.2,657c457.8,362,873.4,701.1,923.2,754.7c201.1,216.4,189.6,538.2-26.8,739.4c-72.8,69-3706.4,2942.1-3804,3009.1C5331,5000.6,4992,5054.3,4781.3,4996.8z"/><path d="M4721.9,2351.6c-72.8-13.4-153.2-30.6-176.2-36.4c-80.4-26.8-254.8-432.9-360.1-833.2c-24.9-97.7-46-185.8-46-195.4c0-9.6,191.5-17.2,431-17.2h431v555.5v555.5l-70.9-1.9C4890.5,2378.4,4796.6,2365,4721.9,2351.6z"/><path d="M5154.8,1826.8v-557.4h431c488.4,0,450.1-17.2,402.2,180c-88.1,346.7-279.6,814.1-346.7,850.4c-46,23-210.7,55.6-365.9,72.8l-120.7,13.4V1826.8z"/><path d="M5921,2240.5c0-5.8,24.9-63.2,57.5-130.3c80.4-178.1,145.6-419.5,220.3-821.7c143.7-791.1,147.5-1354.2,17.2-2020.8c-46-233.7-180.1-676.1-272-906l-42.1-99.6l101.5,49.8c283.5,143.7,704.9,544,944.3,904.1C7120-529.2,7173.7-349.2,7212,101c19.2,233.7,19.2,304.6-3.8,440.6c-38.3,233.7-147.5,580.4-235.6,748.9c-160.9,308.4-519.1,637.8-1026.7,944.3C5932.4,2242.4,5921,2244.3,5921,2240.5z"/><path d="M4141.5,2169.6c-342.9-162.8-697.2-482.7-909.8-817.9l-49.8-82.4h398.4h398.4l24.9,120.7c34.5,168.6,147.5,513.3,224.1,680c36.4,78.5,65.1,145.6,65.1,149.4C4292.9,2236.7,4258.4,2225.2,4141.5,2169.6z"/><path d="M3030.6,915c-61.3-183.9-126.4-547.8-109.2-597.6c9.6-21.1,99.6-24.9,484.6-21.1l475,5.7l3.8,124.5c5.7,157.1,40.2,534.4,55.5,611l13.4,59.4h-431h-431L3030.6,915z"/><path d="M4093.6,997.4c-26.8-216.4-47.9-490.3-49.8-593.8V292.5h478.9h478.9v402.2V1097h-448.2h-448.2L4093.6,997.4z"/><path d="M5158.6,700.5l5.7-398.4l475-5.7l473.1-3.8v157.1c0,153.2-26.8,457.8-49.8,586.1l-11.5,61.3H5603h-448.2L5158.6,700.5z"/><path d="M485-1808.7l5.7-2392.4l72.8-145.6c109.2-224.1,291.1-367.8,526.7-417.6c59.4-13.4,1423.2-17.2,3970.7-15.3l3878.7,5.8l145.6,70.9c174.3,86.2,281.6,197.3,365.8,375.4l61.3,128.3l5.7,2380.9c1.9,1308.3,0,2379-5.7,2379c-7.7,0-863.8-674.3-1905.8-1497.9c-2015-1595.6-2066.7-1631.9-2331.1-1683.7c-285.4-53.6-584.2-17.2-821.7,103.4c-74.7,38.3-817.9,612.9-1972.9,1526.6C1461.9-184.4,594.2,499.4,553.9,530l-72.8,53.6L485-1808.7z"/><path d="M2923.3,10.9c17.2-162.8,88.1-448.2,143.7-576.5l42.1-99.6h421.4h421.4l-11.5,86.2c-28.7,182-49.8,427.1-49.8,570.8v147.5h-490.3h-490.4L2923.3,10.9z"/><path d="M4051.5-84.8c13.4-227.9,44.1-513.3,59.4-555.5c5.7-19.2,113-24.9,450.1-24.9h440.5V-263v402.3h-480.8h-482.7L4051.5-84.8z"/><path d="M5154.8-263v-402.2H5603h448.2l21.1,149.4c13.4,80.4,28.7,262.4,34.5,402.2l11.5,252.9h-480.8h-482.7V-263z"/><path d="M3222.1-889.3c86.2-145.6,254.7-354.4,379.2-467.4c191.5-178.1,503.8-377.3,668.5-429.1l44.1-13.4l-47.9,97.7c-88.1,170.5-164.7,383.1-229.9,630.2L3973-828l-396.5,5.8l-398.4,3.8L3222.1-889.3z"/><path d="M4139.6-831.9c0-9.6,21.1-97.7,46-197.3c103.4-402.2,279.7-810.2,365.8-842.8c47.9-17.2,220.3-47.9,369.7-65.1l80.4-7.7v563.1v563.1h-431C4333.1-818.4,4139.6-824.2,4139.6-831.9z"/><path d="M5168.2-831.9c-7.7-5.7-13.4-258.6-13.4-557.4v-545.9l149.4,11.5c80.5,5.8,193.5,23,249,34.5l101.5,24.9l93.9,191.5c99.6,210.7,151.3,350.5,222.2,614.8c70.9,266.3,111.1,239.4-371.6,239.4C5369.3-818.4,5173.9-824.2,5168.2-831.9z"/></g></g>
</svg>